<?xml version="1.0" encoding="iso-8859-1"?>
<!-- Generator: Adobe Illustrator 26.3.1, SVG Export Plug-In . SVG Version: 6.00 Build 0)  -->
<!DOCTYPE svg PUBLIC "-//W3C//DTD SVG 1.1//EN" "http://www.w3.org/Graphics/SVG/1.1/DTD/svg11.dtd" [
	<!ENTITY ns_extend "http://ns.adobe.com/Extensibility/1.0/">
	<!ENTITY ns_ai "http://ns.adobe.com/AdobeIllustrator/10.0/">
	<!ENTITY ns_graphs "http://ns.adobe.com/Graphs/1.0/">
	<!ENTITY ns_vars "http://ns.adobe.com/Variables/1.0/">
	<!ENTITY ns_imrep "http://ns.adobe.com/ImageReplacement/1.0/">
	<!ENTITY ns_sfw "http://ns.adobe.com/SaveForWeb/1.0/">
	<!ENTITY ns_custom "http://ns.adobe.com/GenericCustomNamespace/1.0/">
	<!ENTITY ns_adobe_xpath "http://ns.adobe.com/XPath/1.0/">
]>
<svg version="1.1" id="Layer_1" xmlns:x="&ns_extend;" xmlns:i="&ns_ai;" xmlns:graph="&ns_graphs;"
	 xmlns="http://www.w3.org/2000/svg" xmlns:xlink="http://www.w3.org/1999/xlink" x="0px" y="0px" viewBox="0 0 165 250"
	 style="enable-background:new 0 0 165 250;" xml:space="preserve">
<style type="text/css">
	.st0{fill:#FFFFFF;}
	.st1{fill:#F6D735;stroke:#000000;stroke-miterlimit:10;}
	.st2{fill:#00ACE2;stroke:#000000;stroke-miterlimit:10;}
	.st3{fill:#F6D735;}
	.st4{fill:none;stroke:#000000;stroke-miterlimit:10;}
	.st5{fill:#080E0F;}
	.st6{fill:#FCEE1F;}
</style>
<metadata>
	<sfw  xmlns="&ns_sfw;">
		<slices></slices>
		<sliceSourceBounds  bottomLeftOrigin="true" height="295" width="395.6" x="-240.2" y="8.6"></sliceSourceBounds>
		<optimizationSettings>
			<targetSettings  fileFormat="JPEGFormat" targetSettingsID="0">
				
					<JPEGFormat  blurAmount="0" embedICCProfile="false" matteColor="#FFFFFF" noMatteColor="false" optimized="true" progressive="true" quality="100">
					</JPEGFormat>
			</targetSettings>
		</optimizationSettings>
	</sfw>
</metadata>
<g>
	<path class="st0" d="M71.4,49.6c0.4,0,0.7-0.3,0.7-0.7s-0.3-0.7-0.7-0.7c-0.4,0-0.7,0.3-0.7,0.7C70.7,49.3,71,49.6,71.4,49.6z"/>
	<path class="st0" d="M67.6,42.9c0,0.6,0,1.6,0,2.7c0,1-0.2,1.6-2.1,1.6c0.2,0.3,1.1,0.5,1.4,0.5c1.8,0,1.9-2.2,1.9-2.2v-4.6
		l-1.9,1.2C67.4,42.1,67.6,42.5,67.6,42.9z"/>
	<path class="st0" d="M67.6,42.9c0,0.6,0,1.6,0,2.7c0,1-0.2,1.6-2.1,1.6c0.2,0.3,1.1,0.5,1.4,0.5c1.8,0,1.9-2.2,1.9-2.2v-4.6
		l-1.9,1.2C67.4,42.1,67.6,42.5,67.6,42.9z"/>
	<path class="st0" d="M66.1,61.1C66.1,61.1,66,61.1,66.1,61.1c-0.4,0.1-0.6,0.4-0.7,0.5c-0.4,0.3-1.7,0.5-1.8-0.8
		c-0.1-0.5,0.4-1,0.9-1c0.4,0,0.8,0.4,0.9,0.9l0,0l0,0l0.1-0.1c0.5-0.2,0.5-1.3,0.1-1.5c0.4-0.3,0.4-1.8-0.4-2.2
		c-0.2-0.1-0.7-0.3-0.7-0.3s0.6,0.9,0.6,1.3c0,0.3-0.1,0.4-0.4,0.5c-0.2,0.1-0.6,0.1-0.9,0.2c-0.1,0-0.5,0.2-0.6,0.3
		c-0.5,0.4-0.8,0.9-0.8,1.6c0,0.5,0.2,1,0.5,1.3c-0.6,0-2.4,0-2.4,0v-5.3l-2,1.4H59c0.2,0,0.4,0.2,0.4,0.5v3.4h-1
		c-0.2-0.5-0.5-0.9-1.1-1.2c-0.4-0.2-0.6-0.6-0.7-1.1c-0.2,0.4-0.4,0.9-0.7,1.1c-0.5,0.3-0.9,0.7-1,1.2h-1.2v-5.3l-2,1.4h0.5
		c0.2,0,0.4,0.2,0.4,0.5v4.5h2.3l0,0c0.2,0.8,0.9,1.4,1.8,1.4c0.8,0,1.6-0.6,1.8-1.3c0.3,0,0.9,0,0.9,0h7.3c0,0-0.6-1.1-0.6-1.6
		L66.1,61.1L66.1,61.1z M56.6,63c-0.3,0-0.6-0.3-0.6-0.6c0-0.2,0.2-0.4,0.4-0.5c0.1-0.1,0.2-0.2,0.2-0.3c0.1,0.1,0.1,0.2,0.2,0.3
		c0.2,0.1,0.4,0.3,0.4,0.5C57.2,62.8,56.9,63,56.6,63z"/>
	<path class="st0" d="M66.1,61.1C66.1,61.1,66,61.1,66.1,61.1c-0.4,0.1-0.6,0.4-0.7,0.5c-0.4,0.3-1.7,0.5-1.8-0.8
		c-0.1-0.5,0.4-1,0.9-1c0.4,0,0.8,0.4,0.9,0.9l0,0l0,0l0.1-0.1c0.5-0.2,0.5-1.3,0.1-1.5c0.4-0.3,0.4-1.8-0.4-2.2
		c-0.2-0.1-0.7-0.3-0.7-0.3s0.6,0.9,0.6,1.3c0,0.3-0.1,0.4-0.4,0.5c-0.2,0.1-0.6,0.1-0.9,0.2c-0.1,0-0.5,0.2-0.6,0.3
		c-0.5,0.4-0.8,0.9-0.8,1.6c0,0.5,0.2,1,0.5,1.3c-0.6,0-2.4,0-2.4,0v-5.3l-2,1.4H59c0.2,0,0.4,0.2,0.4,0.5v3.4h-1
		c-0.2-0.5-0.5-0.9-1.1-1.2c-0.4-0.2-0.6-0.6-0.7-1.1c-0.2,0.4-0.4,0.9-0.7,1.1c-0.5,0.3-0.9,0.7-1,1.2h-1.2v-5.3l-2,1.4h0.5
		c0.2,0,0.4,0.2,0.4,0.5v4.5h2.3l0,0c0.2,0.8,0.9,1.4,1.8,1.4c0.8,0,1.6-0.6,1.8-1.3c0.3,0,0.9,0,0.9,0h7.3c0,0-0.6-1.1-0.6-1.6
		L66.1,61.1L66.1,61.1z M56.6,63c-0.3,0-0.6-0.3-0.6-0.6c0-0.2,0.2-0.4,0.4-0.5c0.1-0.1,0.2-0.2,0.2-0.3c0.1,0.1,0.1,0.2,0.2,0.3
		c0.2,0.1,0.4,0.3,0.4,0.5C57.2,62.8,56.9,63,56.6,63z"/>
	<path class="st0" d="M69.8,52.4c0-1.1-0.3-1.8-1.5-1.8h-4.4c-0.4,0-0.7-0.2-0.7-0.5v-0.2l-1.3,1.8h6.5c0.3,0,0.3,0.4,0.3,0.7
		c0,0.1,0,0.1,0,0.2c-0.2,0-6.9,0-6.9,0v1.1h7.9L69.8,52.4L69.8,52.4z"/>
	<path class="st0" d="M69.8,52.4c0-1.1-0.3-1.8-1.5-1.8h-4.4c-0.4,0-0.7-0.2-0.7-0.5v-0.2l-1.3,1.8h6.5c0.3,0,0.3,0.4,0.3,0.7
		c0,0.1,0,0.1,0,0.2c-0.2,0-6.9,0-6.9,0v1.1h7.9L69.8,52.4L69.8,52.4z"/>
	<path class="st0" d="M72.1,50l-1.8,1.2h0.2c0.3,0,0.5,0.2,0.5,0.6v2.4c0,0.9-0.1,1.3-1.7,1.4h-0.1l0.1,0.1c0.3,0.3,1,0.4,1.3,0.4
		c1.7,0,1.6-1.9,1.6-1.9L72.1,50L72.1,50z"/>
	<path class="st0" d="M72.1,50l-1.8,1.2h0.2c0.3,0,0.5,0.2,0.5,0.6v2.4c0,0.9-0.1,1.3-1.7,1.4h-0.1l0.1,0.1c0.3,0.3,1,0.4,1.3,0.4
		c1.7,0,1.6-1.9,1.6-1.9L72.1,50L72.1,50z"/>
	<path class="st0" d="M50.6,54.6c-0.4,0-0.7,0.3-0.7,0.7s0.3,0.7,0.7,0.7s0.7-0.3,0.7-0.7S51,54.6,50.6,54.6z"/>
	<path class="st0" d="M50.6,54.6c-0.4,0-0.7,0.3-0.7,0.7s0.3,0.7,0.7,0.7s0.7-0.3,0.7-0.7S51,54.6,50.6,54.6z"/>
	<path class="st0" d="M53.6,53.7c0.6,0,1.9,0,2.2,0c0.2,0-2.4-3.2-2.5-3.6c0,0-0.1-0.4,0.4-0.4c0.3,0.2,0.9,1,1.6,2s1.4,1.9,1.4,1.9
		l0,0h4V49l-1.9,1.3H59c0.3,0,0.5,0.2,0.5,0.6v1.7h-2.1c-0.1,0-1.1-1.3-2-2.6s-1.4-2.3-2.6-1.6c-1,0.6-1.4,1.2-1.1,1.8l1.7,2.3h-5.6
		c-0.3,0-0.5-0.5-0.6-0.7v-0.2l-0.1,0.2c0,0-0.8,1.5-0.9,1.7v0.1h0.1c0,0,0.8,0,1.9,0C49.4,53.7,52.4,53.7,53.6,53.7z"/>
	<path class="st0" d="M53.6,53.7c0.6,0,1.9,0,2.2,0c0.2,0-2.4-3.2-2.5-3.6c0,0-0.1-0.4,0.4-0.4c0.3,0.2,0.9,1,1.6,2s1.4,1.9,1.4,1.9
		l0,0h4V49l-1.9,1.3H59c0.3,0,0.5,0.2,0.5,0.6v1.7h-2.1c-0.1,0-1.1-1.3-2-2.6s-1.4-2.3-2.6-1.6c-1,0.6-1.4,1.2-1.1,1.8l1.7,2.3h-5.6
		c-0.3,0-0.5-0.5-0.6-0.7v-0.2l-0.1,0.2c0,0-0.8,1.5-0.9,1.7v0.1h0.1c0,0,0.8,0,1.9,0C49.4,53.7,52.4,53.7,53.6,53.7z"/>
	<path class="st0" d="M57.7,48.9c0,0.4,0.3,0.7,0.7,0.7s0.7-0.3,0.7-0.7s-0.3-0.7-0.7-0.7S57.7,48.6,57.7,48.9z"/>
	<path class="st0" d="M57.7,48.9c0,0.4,0.3,0.7,0.7,0.7s0.7-0.3,0.7-0.7s-0.3-0.7-0.7-0.7S57.7,48.6,57.7,48.9z"/>
	<path class="st0" d="M60.8,47.1c0,0.4,0.3,0.7,0.7,0.7s0.7-0.3,0.7-0.7s-0.3-0.7-0.7-0.7S60.8,46.7,60.8,47.1z"/>
	<path class="st0" d="M60.8,47.1c0,0.4,0.3,0.7,0.7,0.7s0.7-0.3,0.7-0.7s-0.3-0.7-0.7-0.7S60.8,46.7,60.8,47.1z"/>
	<path class="st0" d="M48.8,54.6c-0.4,0-0.7,0.3-0.7,0.7s0.3,0.7,0.7,0.7s0.7-0.3,0.7-0.7S49.2,54.6,48.8,54.6z"/>
	<path class="st0" d="M48.8,54.6c-0.4,0-0.7,0.3-0.7,0.7s0.3,0.7,0.7,0.7s0.7-0.3,0.7-0.7S49.2,54.6,48.8,54.6z"/>
	<path class="st0" d="M66.1,41.4l-1.9,1.2c0.4,0,0.6,0.3,0.6,0.7v1.1c-0.1,0.2-0.4,0.3-0.7,0.3H51.3c-0.3,0-0.6-0.1-0.7-0.3v-1.1
		c0-0.4,0.2-0.7,0.6-0.7l-1.9-1.2v4.5H66L66.1,41.4L66.1,41.4z"/>
	<path class="st0" d="M66.1,41.4l-1.9,1.2c0.4,0,0.6,0.3,0.6,0.7v1.1c-0.1,0.2-0.4,0.3-0.7,0.3H51.3c-0.3,0-0.6-0.1-0.7-0.3v-1.1
		c0-0.4,0.2-0.7,0.6-0.7l-1.9-1.2v4.5H66L66.1,41.4L66.1,41.4z"/>
</g>
<path class="st1" d="M136.1,12.8L30.5,157.5c0,0-8.6-10.9-7.9-37.4V40.4h-9.1l16.2-28.6c0,0,27.8,21.5,53.5-4.8
	C83.2,6.9,105.3,32.4,136.1,12.8C136.1,12.7,136.2,12.7,136.1,12.8z"/>
<path class="st2" d="M139.3,14.9c-0.7,0.9-1.1,1.5-1.5,2c-26.5,35.9-53,71.8-79.5,107.7c-7.3,9.9-14.6,19.7-21.9,29.6
	c-1,1.4-2,2.7-3,4.1c-0.3,0.5-0.7,0.9-0.9,1.4c-0.1,0.3,0,0.6,0.5,1.1c5.6,7.1,11.6,13.7,19.6,18.1c13,7.2,26.8,10.8,41.6,8.1
	c18-3.2,32-13,42.2-28c5.8-8.5,8.8-17.8,8.7-28.3c-0.2-28.4,0-56.9,0-85.4V40c1.3,0,6.8,0,8.4,0C148.6,31.3,144.3,23.6,139.3,14.9z"
	/>
<polygon class="st0" points="114.4,91.3 101.6,98.8 88.6,106.9 78.9,113.1 74.8,115.8 73.7,119.7 73.7,122.3 74.1,123.8 78.3,123.8 
	81.7,123.8 86.1,124.3 92,126.1 103,126.5 113.4,127.1 122.6,125.4 120.2,118.4 121,115.8 124,103.3 124.8,99.6 120.5,102.2 
	115.6,105.2 110.8,107.7 105.2,111 105.7,108.6 106.9,104.5 108.7,99.9 111.2,95.7 "/>
<g>
	<path d="M49.5,37.1L35.7,15.9l-6.1-4.1l-4.4,7l-0.1,1.4l20.2,20.1C46.6,39.1,48,38,49.5,37.1z"/>
	<path d="M21.5,26.9l-5.2,9.6l25.1,10.4c0.5-1.3,1.1-2.6,1.9-3.8L21.5,26.9z"/>
	<path d="M40.4,50.7L23,47l-0.1,8.3l17.4,0.6c-0.1-0.8-0.2-1.5-0.2-2.3C40.2,52.6,40.3,51.7,40.4,50.7z"/>
	<path d="M22.9,62.4v9.2l19.7-8.7c-0.8-1.5-1.5-3.1-1.9-4.8L22.9,62.4z"/>
	<path d="M44.3,65.5L23.2,80.6v14.1l24.3-26C46.3,67.8,45.2,66.7,44.3,65.5z"/>
	<path d="M23.1,112.4c-1.1,20.6,2,31.4,2,31.4l28-72c-1.2-0.4-2.4-1-3.5-1.6L23.1,112.4z"/>
	<path d="M55.7,72.6l-11.5,65.2l16.5-22.5L60,73c-0.2,0-0.3,0-0.5,0C58.2,73,56.9,72.8,55.7,72.6z"/>
	<path d="M68.7,104.1l7.7-10.5l-9.5-22.1c-1.2,0.5-2.5,0.9-3.9,1.1L68.7,104.1z"/>
	<path d="M80.9,87.5l5.4-6.8L72.6,67.9c-0.8,0.8-1.7,1.4-2.7,2.1L80.9,87.5z"/>
	<path d="M89.5,75.9l5.3-7.5l-17.7-6.6c-0.6,1.3-1.4,2.6-2.3,3.7L89.5,75.9z"/>
	<path d="M99.1,62.3l5.7-7.7l-26-0.2c0,1.2-0.2,2.4-0.5,3.6L99.1,62.3z"/>
	<path d="M125.6,25.9L77.8,47.3c0.4,1,0.6,2,0.8,3.1l34.2-6.8L125.6,25.9z"/>
	<path d="M76,43.4l32.2-23.2L95.8,16L73.2,39.8C74.2,40.9,75.1,42.1,76,43.4z"/>
	<path d="M88.1,11.3l-4.7-4.1l-8.9,7.3l-8.2,21c1.7,0.6,3.3,1.5,4.8,2.6L88.1,11.3z"/>
	<path d="M63,34.6l3.4-16.2l-7.7,1.4l-0.1,14.5c0.3,0,0.6,0,0.9,0C60.7,34.3,61.9,34.4,63,34.6z"/>
	<path d="M53.4,20.3l-8.6-0.9l7,16.5c1.5-0.6,3-1.1,4.6-1.3L53.4,20.3z"/>
	<path class="st3" d="M76,43.4c-0.8-1.3-1.7-2.5-2.8-3.6c-0.7-0.6-1.4-1.2-2.1-1.8c-1.4-1.1-3-1.9-4.8-2.6c-1-0.4-2.1-0.7-3.2-0.9
		c-1.1-0.2-2.3-0.3-3.5-0.3c-0.3,0-0.6,0-0.9,0c-0.7,0-1.4,0.1-2.2,0.2c-1.6,0.3-3.2,0.7-4.6,1.3c-0.8,0.4-1.6,0.8-2.3,1.2
		c-1.5,0.9-2.9,2-4.1,3.3c-0.8,0.8-1.5,1.7-2.1,2.7c-0.8,1.2-1.4,2.5-1.9,3.8c-0.4,1.2-0.8,2.5-1,3.8c-0.1,0.9-0.2,1.9-0.2,2.9
		c0,0.8,0.1,1.6,0.2,2.3c0.1,0.8,0.2,1.5,0.4,2.2c0.4,1.7,1,3.3,1.9,4.8c0.5,0.9,1.1,1.7,1.7,2.5c0.9,1.2,2,2.3,3.2,3.2
		c0.7,0.5,1.4,1,2.1,1.5c1.1,0.6,2.2,1.2,3.5,1.6c0.8,0.3,1.7,0.6,2.6,0.7c1.2,0.2,2.5,0.4,3.8,0.4c0.2,0,0.3,0,0.5,0
		c1,0,2-0.1,3-0.3c1.3-0.2,2.6-0.6,3.9-1.1c1-0.4,2-1,3-1.6s1.8-1.3,2.7-2.1c0.8-0.7,1.5-1.5,2.2-2.3c0.9-1.1,1.7-2.4,2.3-3.7
		c0.6-1.2,1-2.5,1.3-3.9c0.3-1.2,0.4-2.3,0.5-3.6c0-0.3,0-0.5,0-0.8c0-1.1-0.1-2.2-0.3-3.3c-0.2-1.1-0.5-2.1-0.8-3.1
		C77.3,45.9,76.7,44.6,76,43.4z"/>
</g>
<path class="st4" d="M9.6,43.3"/>
<path class="st4" d="M38.4,149.2"/>
<polyline class="st4" points="35.1,155.9 32.3,159.9 35.8,164.2 "/>
<g>
	<path d="M106.6,134.8c1,0,2.2,0,3.3,0.2c1.9,0.3,3.6,0.5,5.7,0.4c-0.2-0.4-1.9-0.8-2.3-0.9c-5.1-1.5-11.9-0.6-16.1,0.8
		c-0.8,0.2-1.6,0.4-2.1,0.9c1.9,0.4,5.3-0.4,7.1-0.8C102.8,135.3,105.7,134.8,106.6,134.8z"/>
	<path d="M106.6,134.8c1,0,2.2,0,3.3,0.2c1.9,0.3,3.6,0.5,5.7,0.4c-0.2-0.4-1.9-0.8-2.3-0.9c-5.1-1.5-11.9-0.6-16.1,0.8
		c-0.8,0.2-1.6,0.4-2.1,0.9c1.9,0.4,5.3-0.4,7.1-0.8C102.8,135.3,105.7,134.8,106.6,134.8z"/>
	<path d="M81.9,134.2c4.1,0.8,10.2,2.7,14,0.3C91.5,134.2,86.3,133.2,81.9,134.2z"/>
	<path d="M81.9,134.2c4.1,0.8,10.2,2.7,14,0.3C91.5,134.2,86.3,133.2,81.9,134.2z"/>
	<path d="M65.9,135c-1.5,0.1-2.1-0.3-3.8-0.2c1.5,0.3,3.4,1.1,5.4,1.2c3.5,0.2,6.9-1.9,10.2-1.7c0.7,0,1.3,0.5,2,0.3
		C75.3,131.9,70.1,134.6,65.9,135z"/>
	<path d="M114.8,133.7c1.8,0,3.3,0.2,4.2,0.2c2.8,0.1,5.6-0.1,8.4,0.2c2.5,0.3,5,0.6,7.4-0.1C129.2,131.8,118.5,133.1,114.8,133.7z"
		/>
	<path d="M114.8,133.7c1.8,0,3.3,0.2,4.2,0.2c2.8,0.1,5.6-0.1,8.4,0.2c2.5,0.3,5,0.6,7.4-0.1C129.2,131.8,118.5,133.1,114.8,133.7z"
		/>
	<path d="M74.1,131.7c0.7,0.1,1.4,0.5,2.1,0.7c1,0.2,2.7,0.4,3.8,0.4c5.9,0.1,12-2,17.6-1.3c2.6,0.3,4.6,0.7,7.1,0.5
		c3.8-0.2,7.7-1,11.5-1.2c6.4-0.3,12.9,1.1,19.2,0.5c-2.4-2.3-7.3-1.5-11-1.3c0.9-1.9,2.7-3.6,3.8-5.1c0.1-0.1,0.5-0.5,0.2-0.7
		c-1.5-0.1-3.2,0.1-4.5-0.1c0.3-0.5,0.6-1.1,1-1.5c0.4-0.5,0.7-1,1.1-1.4c0.7-0.9,1.5-1.9,2.3-2.7c2,0.9,5.3,0.7,5-2.1
		c-1.8,0.2-2.5-0.6-3.5-1.1c-1.9,2.6-4.1,5.4-6,7.9c-0.3,0.3-0.5,0.9-1,0.9c-1-1.6-2-5.6-2-5.7c-0.1-0.2,4.7-19.6,4.7-19.6l-9.6,6
		c-0.4-1.3-0.9-2.9-1.3-4.2c0.1,0-2.4,6-2.4,6s-1.7,1.1-2.8,1.8c-1.1,0.7-2.4,1.5-3.6,2c1.3-8.9,5.9-15.8,10.9-20.7
		c0-0.1,0.2-0.2-0.1-0.2c-3.6,2.2-16.9,10.2-16.9,10.1c0,0-1.8-5.7-1.8-5.6c0.1,0-1.4,7.5-1.5,7.6c0.1,0-17.6,11-21.1,13.7
		c-1.7,1.3-2.6,6.7-1,8.4c2.4,0.6,4.9,0.3,7.3,0.4c0.7,0.9,1.5,1.7,2.2,2.5c0.7,0.9,1.4,1.7,2,2.7c-1.3,0.7-2.6,1.5-4.3,1.7
		c-5.5,0.8-12.9-2.4-17.4,0.5C67.3,132.6,71.8,131.3,74.1,131.7z M124.4,99.9c0,0-4.1,17.1-4.1,17.8c-0.2-0.3-4.2-11.2-4.5-12.5
		C115.8,105.2,124.5,99.9,124.4,99.9z M115.3,105.6c0.2,0.7,5.6,15.2,6.4,18.4c0.1,0.3-2.4,0.4-2.6,0.2c-0.3-0.2-4.9-18-4.8-18
		C114.5,106,115.1,105.6,115.3,105.6z M113.7,106.5c0.4,2.9,4.7,16.8,4.5,17.5c-0.2,0.8-1,0.8-1.6,1c-0.5,0.2-1,0.4-1.5,0.6
		s-0.9,0.1-1.5,0.2c-2.3,0.2-4.8,0.6-7.2,0.2c0.1,0,6.1-16.5,6.9-18.6C113.3,107.4,113.7,106.3,113.7,106.5z M112.4,107.2
		c0.2-0.4,0.6-0.5,0.7-0.5c-1.1,3.2-7.2,18.8-7.3,19.3c-0.5,0-1.4,0-1.9,0C104.1,125.3,112.2,107.5,112.4,107.2z M107.6,110
		c1.5-0.8,4.2-2.7,4.2-2.7c0.3,0.1-8.3,18.4-8.5,18.6c-0.3,0.2-4.7-0.1-5.3-0.2c-0.4-0.1-2.5-1.6-2.5-1.7c1-2.4,2.2-4.5,3.5-6.3
		c0.3-0.5,3.2-4.1,4.4-5.2C104.6,111.5,106.2,110.8,107.6,110z M114.4,91.3c0.1,0-2.2,2.6-3.2,4c-2.9,4.1-5,9.4-6.3,15.4
		c-0.1,0-1.1,0.7-1.3,0.9c0,0-4-11.3-3.9-11.3C99.7,100.3,114.4,91.2,114.4,91.3z M99.1,100.7c-0.1-0.1,4.2,11.2,4.1,11.1
		c-0.5,0.5-0.9,0.9-1.4,1.5L98,101.4C98.1,101.3,99.1,100.7,99.1,100.7z M96.5,102.3l1.1-0.7l3.9,12.1c-2.6,2.9-4.7,6.3-6.4,10
		c-0.5,0.2-1.5,0.3-2.3,0.2C92.8,124,96.5,102.2,96.5,102.3z M95.9,102.7c0-0.1-3.8,22.4-3.8,22.5c-0.4,0.3-1.1,0.4-1.7,0.2
		c-0.6-0.6-0.9-1.3-2-1.5c-0.3-0.1-0.7,0.1-1.1,0c-0.8-0.3-7.7-6.7-9.6-9.4C83.6,110.5,89.8,106.5,95.9,102.7z M79.4,119.8
		c-1.3,1.4,1,2.6,1.1,3.5c-2.1,0.2-4.5,0.4-6.6-0.1c-0.2-3.5,0.2-7.3,2.9-8.3c0.7,0.7,9,8.6,9,9C82.5,124.2,82.2,120.5,79.4,119.8z"
		/>
	<path d="M74.1,131.7c0.7,0.1,1.4,0.5,2.1,0.7c1,0.2,2.7,0.4,3.8,0.4c5.9,0.1,12-2,17.6-1.3c2.6,0.3,4.6,0.7,7.1,0.5
		c3.8-0.2,7.7-1,11.5-1.2c6.4-0.3,12.9,1.1,19.2,0.5c-2.4-2.3-7.3-1.5-11-1.3c0.9-1.9,2.7-3.6,3.8-5.1c0.1-0.1,0.5-0.5,0.2-0.7
		c-1.5-0.1-3.2,0.1-4.5-0.1c0.3-0.5,0.6-1.1,1-1.5c0.4-0.5,0.7-1,1.1-1.4c0.7-0.9,1.5-1.9,2.3-2.7c2,0.9,5.3,0.7,5-2.1
		c-1.8,0.2-2.5-0.6-3.5-1.1c-1.9,2.6-4.1,5.4-6,7.9c-0.3,0.3-0.5,0.9-1,0.9c-1-1.6-2-5.6-2-5.7c-0.1-0.2,4.7-19.6,4.7-19.6l-9.6,6
		c-0.4-1.3-0.9-2.9-1.3-4.2c0.1,0-2.4,6-2.4,6s-1.7,1.1-2.8,1.8c-1.1,0.7-2.4,1.5-3.6,2c1.3-8.9,5.9-15.8,10.9-20.7
		c0-0.1,0.2-0.2-0.1-0.2c-3.6,2.2-16.9,10.2-16.9,10.1c0,0-1.8-5.7-1.8-5.6c0.1,0-1.4,7.5-1.5,7.6c0.1,0-17.6,11-21.1,13.7
		c-1.7,1.3-2.6,6.7-1,8.4c2.4,0.6,4.9,0.3,7.3,0.4c0.7,0.9,1.5,1.7,2.2,2.5c0.7,0.9,1.4,1.7,2,2.7c-1.3,0.7-2.6,1.5-4.3,1.7
		c-5.5,0.8-12.9-2.4-17.4,0.5C67.3,132.6,71.8,131.3,74.1,131.7z M124.4,99.9c0,0-4.1,17.1-4.1,17.8c-0.2-0.3-4.2-11.2-4.5-12.5
		C115.8,105.2,124.5,99.9,124.4,99.9z M115.3,105.6c0.2,0.7,5.6,15.2,6.4,18.4c0.1,0.3-2.4,0.4-2.6,0.2c-0.3-0.2-4.9-18-4.8-18
		C114.5,106,115.1,105.6,115.3,105.6z M113.7,106.5c0.4,2.9,4.7,16.8,4.5,17.5c-0.2,0.8-1,0.8-1.6,1c-0.5,0.2-1,0.4-1.5,0.6
		s-0.9,0.1-1.5,0.2c-2.3,0.2-4.8,0.6-7.2,0.2c0.1,0,6.1-16.5,6.9-18.6C113.3,107.4,113.7,106.3,113.7,106.5z M112.4,107.2
		c0.2-0.4,0.6-0.5,0.7-0.5c-1.1,3.2-7.2,18.8-7.3,19.3c-0.5,0-1.4,0-1.9,0C104.1,125.3,112.2,107.5,112.4,107.2z M107.6,110
		c1.5-0.8,4.2-2.7,4.2-2.7c0.3,0.1-8.3,18.4-8.5,18.6c-0.3,0.2-4.7-0.1-5.3-0.2c-0.4-0.1-2.5-1.6-2.5-1.7c1-2.4,2.2-4.5,3.5-6.3
		c0.3-0.5,3.2-4.1,4.4-5.2C104.6,111.5,106.2,110.8,107.6,110z M114.4,91.3c0.1,0-2.2,2.6-3.2,4c-2.9,4.1-5,9.4-6.3,15.4
		c-0.1,0-1.1,0.7-1.3,0.9c0,0-4-11.3-3.9-11.3C99.7,100.3,114.4,91.2,114.4,91.3z M99.1,100.7c-0.1-0.1,4.2,11.2,4.1,11.1
		c-0.5,0.5-0.9,0.9-1.4,1.5L98,101.4C98.1,101.3,99.1,100.7,99.1,100.7z M96.5,102.3l1.1-0.7l3.9,12.1c-2.6,2.9-4.7,6.3-6.4,10
		c-0.5,0.2-1.5,0.3-2.3,0.2C92.8,124,96.5,102.2,96.5,102.3z M95.9,102.7c0-0.1-3.8,22.4-3.8,22.5c-0.4,0.3-1.1,0.4-1.7,0.2
		c-0.6-0.6-0.9-1.3-2-1.5c-0.3-0.1-0.7,0.1-1.1,0c-0.8-0.3-7.7-6.7-9.6-9.4C83.6,110.5,89.8,106.5,95.9,102.7z M79.4,119.8
		c-1.3,1.4,1,2.6,1.1,3.5c-2.1,0.2-4.5,0.4-6.6-0.1c-0.2-3.5,0.2-7.3,2.9-8.3c0.7,0.7,9,8.6,9,9C82.5,124.2,82.2,120.5,79.4,119.8z"
		/>
</g>
<g>
	<polygon points="83.1,148.3 79.5,150.7 79.1,150 83.1,147.3 84.1,147.3 84.1,160.2 83.1,160.2 	"/>
	<path d="M89.6,160.1l-0.5-0.1l0.1-0.8c1.1,0.1,2.2,0.2,3.3,0.2c2.6,0,3.9-1.7,4-5.1c-1.4,0.5-2.6,0.8-3.8,0.8c-1.4,0-2.4-0.3-3.1-1
		c-0.7-0.6-1-1.6-1-2.9c0-0.9,0.2-1.6,0.5-2.2c0.4-0.6,0.9-1.1,1.5-1.5s1.4-0.5,2.3-0.5c3.1,0,4.6,2.3,4.6,6.9
		c0,2.2-0.4,3.8-1.2,4.9c-0.8,1-2.1,1.5-3.8,1.5C91.6,160.3,90.6,160.3,89.6,160.1 M95.9,153.7l0.6-0.2c-0.1-3.7-1.2-5.5-3.5-5.5
		c-1,0-1.8,0.3-2.4,0.9s-0.9,1.4-0.9,2.5c0,2,1,3,3.1,3C93.7,154.3,94.7,154.1,95.9,153.7"/>
	<path d="M100.8,158.7c-0.7-1.1-1.1-2.8-1.1-5s0.4-3.9,1.3-5c0.8-1.1,2-1.6,3.6-1.6c1,0,2,0.1,2.9,0.2l0.5,0.1l-0.1,0.9
		c-1.2-0.1-2.3-0.2-3.4-0.2c-1.2,0-2.1,0.4-2.8,1.3c-0.7,0.9-1,2.1-1,3.8l0.5-0.2c0.4-0.1,0.8-0.3,1.5-0.4c0.6-0.2,1.1-0.2,1.6-0.2
		c1.4,0,2.5,0.3,3.2,1s1.1,1.6,1.1,3c0,1.3-0.4,2.4-1.1,3.1c-0.8,0.7-1.8,1.1-3.2,1.1C102.7,160.3,101.6,159.8,100.8,158.7
		 M106.7,158.6c0.6-0.6,0.9-1.4,0.9-2.4s-0.3-1.8-0.9-2.3s-1.4-0.8-2.4-0.8c-0.5,0-1,0.1-1.6,0.2s-1.1,0.3-1.5,0.4l-0.5,0.2
		c0,1.7,0.3,3.1,0.9,4c0.6,1,1.4,1.5,2.5,1.5S106.1,159.2,106.7,158.6"/>
	<path d="M111.8,158.7c-0.7-1.1-1.1-2.8-1.1-5s0.4-3.9,1.3-5c0.8-1.1,2-1.6,3.6-1.6c1,0,2,0.1,2.9,0.2l0.5,0.1l-0.1,0.9
		c-1.2-0.1-2.3-0.2-3.4-0.2c-1.2,0-2.1,0.4-2.8,1.3c-0.7,0.9-1,2.1-1,3.8l0.5-0.2c0.4-0.1,0.8-0.3,1.5-0.4c0.6-0.2,1.1-0.2,1.6-0.2
		c1.4,0,2.5,0.3,3.2,1s1.1,1.6,1.1,3c0,1.3-0.4,2.4-1.1,3.1c-0.8,0.7-1.8,1.1-3.2,1.1C113.7,160.3,112.5,159.8,111.8,158.7
		 M117.6,158.6c0.6-0.6,0.9-1.4,0.9-2.4s-0.3-1.8-0.9-2.3s-1.4-0.8-2.4-0.8c-0.5,0-1,0.1-1.6,0.2s-1.1,0.3-1.5,0.4l-0.5,0.2
		c0,1.7,0.3,3.1,0.9,4c0.6,1,1.4,1.5,2.5,1.5C116.2,159.4,117,159.2,117.6,158.6"/>
	<path d="M75.9,155c-0.8,0.8-2,0.8-2.8,0s-0.8-2,0-2.8s2-0.8,2.8,0C76.6,153,76.6,154.2,75.9,155"/>
	<path d="M126.7,155c-0.8,0.8-2,0.8-2.8,0s-0.8-2,0-2.8s2-0.8,2.8,0S127.5,154.2,126.7,155"/>
</g>
<g>
	<g>
		<g>
			<path class="st5" d="M32.4,213.7v2H19.3c-1.5,0-2.7-0.1-3.6-0.4c-0.9-0.2-1.6-0.7-2.1-1.3s-0.7-1.4-0.7-2.5
				c0-0.7,0.1-1.5,0.2-2.5c0.2-1,0.3-1.9,0.5-2.8l1.8,0.1l-0.2,1.8c-0.2,1.3-0.3,2.3-0.3,2.8c0,0.9,0.3,1.6,0.9,2s1.7,0.6,3.4,0.6
				h7.3v-9.9h2.3v9.9h3.6C32.4,213.5,32.4,213.7,32.4,213.7z M18.6,201.5h2.1v2.3h-2.1V201.5z M21.9,201.5h2v2.3h-2V201.5z"/>
		</g>
	</g>
	<g>
		<g>
			<path class="st5" d="M38.3,203.8v11.9h-5.9v-2H36v-9.9H38.3z M34.5,217.6h2.1v2.3h-2.1V217.6z M37.7,217.6h2v2.3h-2V217.6z"/>
		</g>
	</g>
	<g>
		<g>
			<path class="st5" d="M54.4,215.7h-3c-0.1,1.9-0.5,3.3-1.2,4.4c-0.7,1-1.8,1.6-3.3,1.6c-0.7,0-2-0.1-3.8-0.4v-2
				c1.6,0.3,2.8,0.4,3.7,0.4c0.6,0,1-0.1,1.3-0.3s0.6-0.6,0.8-1.1c0.2-0.6,0.3-1.4,0.3-2.5h-3.3c-1.9,0-3.1-0.6-3.7-1.7
				c-0.6-1.1-0.9-2.5-0.9-4.2c0-1.6,0.2-2.8,0.5-3.8c0.3-0.9,0.9-1.6,1.7-2.1c0.8-0.4,1.8-0.7,3.1-0.7c0.7,0,1.6,0.1,2.6,0.2
				s1.8,0.2,2.4,0.3v9.9h3v2L54.4,215.7L54.4,215.7z M44,212.6c0.4,0.7,1.2,1.1,2.5,1.1h2.6v-8.2c-0.8-0.1-1.5-0.2-2.1-0.2
				c-1.3,0-2.2,0.3-2.7,1s-0.8,1.8-0.8,3.4C43.5,210.9,43.6,211.9,44,212.6"/>
		</g>
	</g>
	<g>
		<g>
			<path class="st5" d="M70.9,213.7v2H54.3v-2h10.9v-3.3c0-0.9-0.2-1.7-0.6-2.3c-0.4-0.7-0.9-1-1.7-1h-6.6l-1.4-1.8l1.3-2.6
				c0.3-0.6,0.7-1.3,1.3-2.1s1.1-1.5,1.7-2.2l1.7,0.9c-1.1,1.6-1.9,3-2.6,4.2l-0.8,1.5h5.6c1.5,0,2.6,0.5,3.3,1.6
				c0.7,1.1,1,2.3,1,3.8v3.3L70.9,213.7L70.9,213.7z"/>
		</g>
	</g>
	<g>
		<g>
			<polygon class="st5" points="76.2,198.7 76.2,215.7 70.9,215.7 70.9,213.7 73.9,213.7 73.9,198.7 			"/>
		</g>
	</g>
	<g>
		<g>
			<rect x="80.4" y="198.7" class="st5" width="2.3" height="17"/>
		</g>
	</g>
	<g>
		<g>
			<path class="st5" d="M105.4,213.7v2h-8.2c-1.5,0-2.7-0.2-3.5-0.6c-0.9-0.4-1.5-1-1.9-1.9s-0.6-2.1-0.6-3.6s0.2-2.7,0.6-3.6
				s1-1.5,1.8-1.9s2-0.6,3.5-0.6c0.7,0,1.7,0,2.9,0.1c1.2,0.1,2.2,0.1,2.7,0.2v9.9L105.4,213.7L105.4,213.7z M93.9,212.1
				c0.3,0.6,0.7,1,1.2,1.3c0.6,0.3,1.3,0.4,2.3,0.4h3v-7.9c-1.3-0.1-2.3-0.1-3.1-0.1c-1,0-1.7,0.1-2.3,0.4c-0.6,0.3-1,0.7-1.2,1.3
				s-0.4,1.4-0.4,2.4C93.6,210.7,93.7,211.5,93.9,212.1 M95,199.3h2.1v2.3H95V199.3z M98.3,199.3h2v2.3h-2V199.3z"/>
		</g>
	</g>
	<g>
		<g>
			<path class="st5" d="M120.7,213.7v2H118c-0.8,0-1.6-0.1-2.4-0.3s-1.6-0.5-2.3-0.8c-0.7,0.3-1.5,0.6-2.3,0.8s-1.6,0.3-2.4,0.3
				h-3.1v-2h3c0.8,0,1.7-0.2,2.5-0.5c-1.2-0.9-2.1-2-2.8-3.1c-0.7-1.1-1.1-2.2-1.1-3.1l-0.1-1.8c1-0.5,2-0.9,3-1.2
				c1.1-0.3,2.1-0.5,3.1-0.5s2.1,0.2,3.2,0.5s2.1,0.7,3.1,1.2l-0.1,1.8c0,0.9-0.4,2-1.1,3.1s-1.7,2.2-2.9,3.1
				c0.9,0.3,1.7,0.5,2.6,0.5H120.7z M110.3,209.6c0.7,1,1.6,1.9,2.9,2.7c1.2-0.8,2.2-1.7,2.9-2.7c0.7-1,1-2.1,1-3.2
				c-1.5-0.5-2.8-0.8-3.9-0.8s-2.4,0.3-3.9,0.8C109.3,207.5,109.7,208.5,110.3,209.6"/>
		</g>
	</g>
	<g>
		<g>
			<path class="st5" d="M133.8,205c0.9,1,1.4,2.6,1.4,4.7v6h-14.5v-2h3.9c-0.2-1.3-0.3-2.6-0.3-3.8c0-1,0.1-2,0.2-3s0.3-1.9,0.5-2.6
				c0.4-0.2,1-0.3,1.8-0.5c0.8-0.1,1.6-0.2,2.5-0.2C131.4,203.6,132.9,204.1,133.8,205 M126.7,212c0.1,0.7,0.2,1.3,0.2,1.7h6v-4
				c0-1.5-0.3-2.5-0.9-3.2c-0.6-0.6-1.6-1-3-1c-0.7,0-1.4,0.1-2,0.2c-0.2,1.5-0.4,2.8-0.4,4.1C126.6,210.6,126.6,211.3,126.7,212"/>
		</g>
	</g>
	<g>
		<g>
			<polygon class="st5" points="143.3,213.7 143.3,215.7 138.7,215.7 138.7,198.7 141,198.7 141,213.7 			"/>
		</g>
	</g>
	<g>
		<g>
			<path class="st5" d="M154.1,204.5c0.7,0.6,1.1,1.6,1.1,3.1v8.1h-11.9v-2h9.6v-5.9c0-1.5-0.8-2.3-2.4-2.3c-0.7,0-2.4,0.1-5,0.4
				l-0.1-1.6c0.9-0.2,1.9-0.4,2.9-0.5c1.1-0.2,2-0.2,2.7-0.2C152.3,203.6,153.3,203.9,154.1,204.5 M149.1,217.6h2.2v2.3h-2.2V217.6z
				"/>
		</g>
	</g>
</g>
<g>
	<g>
		<g>
			<polygon class="st5" points="16.4,236.1 14.4,236.1 14.4,241.1 13.6,241.1 13.6,230.2 14.4,230.2 14.4,235.4 16.3,235.4 
				19.6,230.2 20.6,230.2 17,235.7 20.8,241.1 19.8,241.1 			"/>
		</g>
	</g>
	<g>
		<g>
			<path class="st5" d="M23.6,240.5c-0.6-0.5-0.9-1.4-0.9-2.5v-7.7h0.8v7.8c0,1.7,1,2.6,2.9,2.6c1,0,1.8-0.2,2.3-0.6
				s0.7-1.1,0.7-1.9v-7.8h0.8v7.7c0,1.1-0.3,2-0.9,2.5s-1.6,0.8-2.8,0.8C25.2,241.2,24.3,241,23.6,240.5"/>
		</g>
	</g>
	<g>
		<g>
			<polygon class="st5" points="32.4,230.2 33.2,230.2 35.3,240.4 35.9,240.4 38.3,230.3 39.2,230.3 41.6,240.4 42.1,240.4 
				44.2,230.2 45,230.2 42.7,241.1 41,241.1 38.7,231.4 36.5,241.1 34.7,241.1 			"/>
		</g>
	</g>
	<g>
		<g>
			<path class="st5" d="M52.8,237.9h-5.1l-1,3.2h-0.8l3.3-10.9h2l3.3,10.9h-0.8L52.8,237.9z M50.7,230.9h-0.8l-1.9,6.3h4.7
				L50.7,230.9z"/>
		</g>
	</g>
	<g>
		<g>
			<rect x="56.7" y="230.2" class="st5" width="0.8" height="10.9"/>
		</g>
	</g>
	<g>
		<g>
			<polygon class="st5" points="63,230.9 59.4,230.9 59.4,230.2 67.4,230.2 67.4,230.9 63.8,230.9 63.8,241.1 63,241.1 			"/>
		</g>
	</g>
	<g>
		<g>
			<path class="st5" d="M74,240.5c-0.6-0.5-0.9-1.4-0.9-2.5v-7.7h0.8v7.8c0,1.7,1,2.6,2.9,2.6c1,0,1.8-0.2,2.3-0.6s0.7-1.1,0.7-1.9
				v-7.8h0.8v7.7c0,1.1-0.3,2-0.9,2.5s-1.6,0.8-2.8,0.8C75.5,241.2,74.6,241,74,240.5"/>
		</g>
	</g>
	<g>
		<g>
			<polygon class="st5" points="91.4,230.2 91.4,241.1 89.7,241.1 84.7,230.9 84.4,230.9 84.4,241.1 83.6,241.1 83.6,230.2 
				85.3,230.2 90.3,240.4 90.6,240.4 90.6,230.2 			"/>
		</g>
	</g>
	<g>
		<g>
			<rect x="94.6" y="230.2" class="st5" width="0.8" height="10.9"/>
		</g>
	</g>
	<g>
		<g>
			<polygon class="st5" points="97.5,230.2 98.3,230.2 101.1,240.4 102.1,240.4 104.9,230.2 105.7,230.2 102.7,241.1 100.5,241.1 
							"/>
		</g>
	</g>
	<g>
		<g>
			<polygon class="st5" points="108.7,230.9 108.7,235.2 113.5,235.2 113.5,235.9 108.7,235.9 108.7,240.4 114.5,240.4 114.5,241.1 
				107.9,241.1 107.9,230.2 114.5,230.2 114.5,230.9 			"/>
		</g>
	</g>
	<g>
		<g>
			<path class="st5" d="M117,230.2h4c1.1,0,2,0.3,2.5,0.8c0.6,0.5,0.8,1.3,0.8,2.4c0,1.8-0.7,2.8-2.2,3.2l2.4,4.5h-0.9l-2.3-4.4
				h-3.6v4.4h-0.8L117,230.2L117,230.2z M121,236c1.7,0,2.5-0.8,2.5-2.5c0-0.9-0.2-1.5-0.6-1.9s-1.1-0.6-1.9-0.6h-3.2v5.1h3.2V236z"
				/>
		</g>
	</g>
	<g>
		<g>
			<path class="st5" d="M127.1,241l-0.6-0.1l0.1-0.7c1.5,0.2,2.6,0.3,3.3,0.3c1.8,0,2.6-0.8,2.6-2.5c0-0.5-0.1-0.8-0.2-1.1
				c-0.1-0.3-0.4-0.5-0.8-0.6c-0.4-0.2-0.9-0.3-1.7-0.4c-0.9-0.2-1.6-0.3-2.1-0.5s-0.8-0.5-1.1-0.9c-0.2-0.4-0.3-0.9-0.3-1.6
				c0-0.9,0.3-1.6,0.8-2.1c0.6-0.5,1.4-0.7,2.6-0.7c0.9,0,1.9,0.1,3.2,0.3l-0.1,0.7c-1.5-0.2-2.5-0.3-3.1-0.3c-1.8,0-2.7,0.7-2.7,2
				c0,0.5,0.1,0.9,0.2,1.2s0.4,0.5,0.8,0.6c0.4,0.2,1,0.3,1.9,0.5c0.8,0.1,1.4,0.3,1.9,0.5c0.4,0.2,0.8,0.5,1,0.8
				c0.2,0.4,0.3,0.8,0.3,1.4c0,1.1-0.3,2-0.8,2.5s-1.4,0.8-2.6,0.8C129.3,241.2,128.3,241.1,127.1,241"/>
		</g>
	</g>
	<g>
		<g>
			<rect x="136" y="230.2" class="st5" width="0.8" height="10.9"/>
		</g>
	</g>
	<g>
		<g>
			<polygon class="st5" points="142.3,230.9 138.7,230.9 138.7,230.2 146.6,230.2 146.6,230.9 143.1,230.9 143.1,241.1 142.3,241.1 
							"/>
		</g>
	</g>
	<g>
		<g>
			<polygon class="st5" points="151,236.4 147.4,230.2 148.3,230.2 151.4,235.6 154.4,230.2 155.4,230.2 151.8,236.4 151.8,241.1 
				151,241.1 			"/>
		</g>
	</g>
</g>
<g>
	<path d="M71.7,49.9c0.4,0,0.7-0.3,0.7-0.7s-0.3-0.7-0.7-0.7c-0.4,0-0.7,0.3-0.7,0.7C71,49.6,71.3,49.9,71.7,49.9z"/>
	<path class="st6" d="M67.9,43.1c0,0.6,0,1.7,0,2.7s-0.2,1.6-2.1,1.7c0.2,0.3,1.1,0.5,1.4,0.5c1.8,0,2-2.2,2-2.2v-4.6l-1.9,1.2
		C67.6,42.4,67.9,42.7,67.9,43.1z"/>
	<path d="M67.9,43.1c0,0.6,0,1.7,0,2.7s-0.2,1.6-2.1,1.7c0.2,0.3,1.1,0.5,1.4,0.5c1.8,0,2-2.2,2-2.2v-4.6l-1.9,1.2
		C67.6,42.4,67.9,42.7,67.9,43.1z"/>
	<path class="st6" d="M66.3,61.5L66.3,61.5c-0.4,0.1-0.6,0.4-0.7,0.5c-0.4,0.3-1.7,0.5-1.8-0.8c-0.1-0.5,0.4-1,0.9-1
		s0.8,0.4,0.9,0.9l0,0l0,0l0.2-0.1c0.5-0.2,0.5-1.4,0.1-1.6c0.4-0.3,0.4-1.9-0.4-2.2c-0.2-0.1-0.7-0.3-0.7-0.3s0.6,0.9,0.6,1.3
		c0,0.3-0.1,0.4-0.4,0.5c-0.2,0.1-0.6,0.1-0.9,0.2c-0.1,0-0.5,0.2-0.6,0.3c-0.5,0.4-0.8,0.9-0.8,1.6c0,0.5,0.2,1,0.5,1.3
		c-0.6,0-2.4,0-2.4,0v-5.4l-2,1.4h0.5c0.2,0,0.4,0.2,0.4,0.5V62h-1c-0.2-0.5-0.6-0.9-1.1-1.2c-0.4-0.2-0.6-0.6-0.7-1.1
		c-0.2,0.5-0.4,0.9-0.8,1.1c-0.5,0.3-0.9,0.7-1.1,1.2h-1.2v-5.4l-2,1.4h0.5c0.2,0,0.4,0.2,0.4,0.5V63H55l0,0c0.2,0.8,1,1.4,1.8,1.4
		c0.9,0,1.6-0.6,1.8-1.3c0.3,0,0.9,0,0.9,0h7.4C66.9,63.1,66.3,62,66.3,61.5L66.3,61.5L66.3,61.5z M56.8,63.4
		c-0.3,0-0.6-0.3-0.6-0.6c0-0.2,0.2-0.4,0.4-0.5c0.1-0.1,0.2-0.2,0.2-0.3c0.1,0.1,0.1,0.2,0.2,0.3c0.2,0.1,0.4,0.3,0.4,0.5
		C57.4,63.1,57.1,63.4,56.8,63.4z"/>
	<path d="M66.3,61.5L66.3,61.5c-0.4,0.1-0.6,0.4-0.7,0.5c-0.4,0.3-1.7,0.5-1.8-0.8c-0.1-0.5,0.4-1,0.9-1s0.8,0.4,0.9,0.9l0,0l0,0
		l0.2-0.1c0.5-0.2,0.5-1.4,0.1-1.6c0.4-0.3,0.4-1.9-0.4-2.2c-0.2-0.1-0.7-0.3-0.7-0.3s0.6,0.9,0.6,1.3c0,0.3-0.1,0.4-0.4,0.5
		c-0.2,0.1-0.6,0.1-0.9,0.2c-0.1,0-0.5,0.2-0.6,0.3c-0.5,0.4-0.8,0.9-0.8,1.6c0,0.5,0.2,1,0.5,1.3c-0.6,0-2.4,0-2.4,0v-5.4l-2,1.4
		h0.5c0.2,0,0.4,0.2,0.4,0.5V62h-1c-0.2-0.5-0.6-0.9-1.1-1.2c-0.4-0.2-0.6-0.6-0.7-1.1c-0.2,0.5-0.4,0.9-0.8,1.1
		c-0.5,0.3-0.9,0.7-1.1,1.2h-1.2v-5.4l-2,1.4h0.5c0.2,0,0.4,0.2,0.4,0.5V63H55l0,0c0.2,0.8,1,1.4,1.8,1.4c0.9,0,1.6-0.6,1.8-1.3
		c0.3,0,0.9,0,0.9,0h7.4C66.9,63.1,66.3,62,66.3,61.5L66.3,61.5L66.3,61.5z M56.8,63.4c-0.3,0-0.6-0.3-0.6-0.6
		c0-0.2,0.2-0.4,0.4-0.5c0.1-0.1,0.2-0.2,0.2-0.3c0.1,0.1,0.1,0.2,0.2,0.3c0.2,0.1,0.4,0.3,0.4,0.5C57.4,63.1,57.1,63.4,56.8,63.4z"
		/>
	<path class="st6" d="M70,52.7c0-1.1-0.3-1.8-1.5-1.8H64c-0.4,0-0.7-0.2-0.7-0.5v-0.2L62,52h6.6c0.3,0,0.3,0.4,0.3,0.7
		c0,0.1,0,0.1,0,0.2c-0.2,0-6.9,0-6.9,0V54h8V52.7z"/>
	<path d="M70,52.7c0-1.1-0.3-1.8-1.5-1.8H64c-0.4,0-0.7-0.2-0.7-0.5v-0.2L62,52h6.6c0.3,0,0.3,0.4,0.3,0.7c0,0.1,0,0.1,0,0.2
		c-0.2,0-6.9,0-6.9,0V54h8V52.7z"/>
	<path class="st6" d="M72.3,50.3l-1.8,1.2h0.2c0.3,0,0.5,0.2,0.5,0.6v2.4c0,0.9-0.1,1.3-1.8,1.4h-0.1l0.1,0.1c0.3,0.3,1,0.4,1.3,0.4
		c1.7,0,1.6-1.9,1.6-1.9L72.3,50.3L72.3,50.3z"/>
	<path d="M72.3,50.3l-1.8,1.2h0.2c0.3,0,0.5,0.2,0.5,0.6v2.4c0,0.9-0.1,1.3-1.8,1.4h-0.1l0.1,0.1c0.3,0.3,1,0.4,1.3,0.4
		c1.7,0,1.6-1.9,1.6-1.9L72.3,50.3L72.3,50.3z"/>
	<path class="st6" d="M50.7,54.9c-0.4,0-0.7,0.3-0.7,0.7s0.3,0.7,0.7,0.7s0.7-0.3,0.7-0.7C51.4,55.3,51.1,54.9,50.7,54.9z"/>
	<path d="M50.7,54.9c-0.4,0-0.7,0.3-0.7,0.7s0.3,0.7,0.7,0.7s0.7-0.3,0.7-0.7C51.4,55.3,51.1,54.9,50.7,54.9z"/>
	<path class="st6" d="M53.7,54c0.6,0,2,0,2.2,0s-2.4-3.2-2.5-3.6c0,0-0.1-0.4,0.4-0.4c0.4,0.2,0.9,1,1.6,2s1.4,1.9,1.4,1.9l0,0h4.1
		v-4.6l-2,1.3h0.2c0.3,0,0.5,0.2,0.5,0.6v1.7h-2.1c-0.1,0-1.1-1.3-2-2.6s-1.4-2.3-2.6-1.6c-1,0.6-1.4,1.2-1.1,1.8l1.7,2.3h-5.7
		c-0.3,0-0.5-0.5-0.6-0.7v-0.2l-0.1,0.2c0,0-0.8,1.6-0.9,1.7v0.1h0.1c0,0,0.8,0,1.9,0C49.5,54,52.6,54,53.7,54z"/>
	<path d="M53.7,54c0.6,0,2,0,2.2,0s-2.4-3.2-2.5-3.6c0,0-0.1-0.4,0.4-0.4c0.4,0.2,0.9,1,1.6,2s1.4,1.9,1.4,1.9l0,0h4.1v-4.6l-2,1.3
		h0.2c0.3,0,0.5,0.2,0.5,0.6v1.7h-2.1c-0.1,0-1.1-1.3-2-2.6s-1.4-2.3-2.6-1.6c-1,0.6-1.4,1.2-1.1,1.8l1.7,2.3h-5.7
		c-0.3,0-0.5-0.5-0.6-0.7v-0.2l-0.1,0.2c0,0-0.8,1.6-0.9,1.7v0.1h0.1c0,0,0.8,0,1.9,0C49.5,54,52.6,54,53.7,54z"/>
	<path class="st6" d="M57.9,49.2c0,0.4,0.3,0.7,0.7,0.7s0.7-0.3,0.7-0.7s-0.3-0.7-0.7-0.7S57.9,48.8,57.9,49.2z"/>
	<path d="M57.9,49.2c0,0.4,0.3,0.7,0.7,0.7s0.7-0.3,0.7-0.7s-0.3-0.7-0.7-0.7S57.9,48.8,57.9,49.2z"/>
	<path class="st6" d="M61,47.4c0,0.4,0.3,0.7,0.7,0.7s0.7-0.3,0.7-0.7s-0.3-0.7-0.7-0.7S61,47,61,47.4z"/>
	<path d="M61,47.4c0,0.4,0.3,0.7,0.7,0.7s0.7-0.3,0.7-0.7s-0.3-0.7-0.7-0.7S61,47,61,47.4z"/>
	<path class="st6" d="M48.9,54.9c-0.4,0-0.7,0.3-0.7,0.7s0.3,0.7,0.7,0.7s0.7-0.3,0.7-0.7C49.6,55.3,49.3,54.9,48.9,54.9z"/>
	<path d="M48.9,54.9c-0.4,0-0.7,0.3-0.7,0.7s0.3,0.7,0.7,0.7s0.7-0.3,0.7-0.7C49.6,55.3,49.3,54.9,48.9,54.9z"/>
	<path class="st6" d="M66.3,41.6l-1.9,1.2c0.4,0,0.6,0.3,0.6,0.7v1.1c-0.1,0.2-0.4,0.3-0.7,0.3H51.4c-0.3,0-0.6-0.1-0.7-0.3v-1.1
		c0-0.4,0.2-0.7,0.6-0.7l-1.9-1.2v4.5h16.9C66.3,46.1,66.3,41.6,66.3,41.6z"/>
	<path d="M66.3,41.6l-1.9,1.2c0.4,0,0.6,0.3,0.6,0.7v1.1c-0.1,0.2-0.4,0.3-0.7,0.3H51.4c-0.3,0-0.6-0.1-0.7-0.3v-1.1
		c0-0.4,0.2-0.7,0.6-0.7l-1.9-1.2v4.5h16.9C66.3,46.1,66.3,41.6,66.3,41.6z"/>
</g>
<text transform="matrix(1 0 0 1 -240.2301 -40.1985)" style="font-family:'Cairo-Light'; font-size:15.7949px;"> </text>
</svg>
